<svg id="Layer_1" data-name="Layer 1" xmlns="http://www.w3.org/2000/svg" xmlns:xlink="http://www.w3.org/1999/xlink" viewBox="0 0 1546.25 405.44"><defs><style>.cls-1{fill:url(#linear-gradient);}.cls-2{fill:#fff;}</style><linearGradient id="linear-gradient" x1="443.85" y1="-30.53" x2="-39.9" y2="437.43" gradientUnits="userSpaceOnUse"><stop offset="0.1" stop-color="#f2be03"/><stop offset="0.49" stop-color="#f2d903"/><stop offset="0.65" stop-color="#f2c903"/><stop offset="0.93" stop-color="#f2a403"/></linearGradient></defs><circle class="cls-1" cx="202.5" cy="202.94" r="202.5"/><path d="M398.19,381.62c-1.72,6.6-4,12.85-8.8,18-6.71,7.2-15.38,9.68-24.65,11a2.23,2.23,0,0,1-.36,0c-8.81-.33-14,3.78-15.95,12.43-.43,1.9-.71,3.24.54,4.92,3.32,4.46,6.67,8.93,9.62,13.64,8.41,13.46,7.48,28.05-3.15,39.81A315.2,315.2,0,0,1,331,505.76c-11.59,10.28-26.57,10.92-39.57,2.45-4.56-3-8.82-6.4-13.4-9.34a5.69,5.69,0,0,0-4.47-.51c-11,4.15-10.63,4.27-12.87,15.95-1.18,6.21-2.67,12.7-5.69,18.14-5.78,10.42-15.59,15.25-27.43,15.51q-15.44.33-30.88,0c-17.09-.36-29.77-11.82-32.46-29-.73-4.66-1.51-9.31-2.27-14a5.45,5.45,0,0,0-.19-1.07c-1-2.84-12.4-6.48-14.88-4.73-4,2.78-7.88,5.63-11.85,8.4-14.2,9.92-29.7,9.26-42.49-2.4-8-7.25-15.59-14.91-22.84-22.86-11.32-12.4-12-28.09-2.39-41.93,2.76-4,5.77-7.78,8.37-11.86a5.7,5.7,0,0,0,.47-4.48c-4.22-10.92-4.29-10.87-16.08-12.7-6.46-1-12.94-2-18.58-5.68-10-6.5-15.08-15.83-15.32-27.67q-.3-15.26,0-30.51c.32-17.27,11.65-29.85,29.16-32.68,4.54-.73,9.1-1.4,13.59-2.33a4.69,4.69,0,0,0,2.86-2.17c5.23-10.68,5-10.6-1.67-20.45-3.31-4.86-6.83-9.85-8.78-15.31C57.52,264,59.23,253.42,66.71,245a342.78,342.78,0,0,1,26.64-26.73c10.35-9.38,25.57-10.31,37.44-2.94,5.14,3.19,9.87,7,14.94,10.31a5.32,5.32,0,0,0,4.16.5c11.1-4.17,11.12-4.22,12.85-15.91,1.41-9.48,3.67-18.47,11.09-25.38,5.16-4.79,11.39-7.09,18-8.81H231c.8.24,1.59.53,2.4.71,9.06,2,16.66,6.63,20.9,14.85a55.53,55.53,0,0,1,5.56,18.15c1,7.71,3,13.61,11.57,15a4.61,4.61,0,0,1,1.66.72c2,1.21,3.61,1.06,5.53-.45,3.9-3.06,8-5.89,12.09-8.67,13.31-9,28.43-8.6,40.45,2a301,301,0,0,1,24.43,24.29c10.61,11.75,11.52,26.29,3.11,39.78-2.94,4.71-6.51,9-9.52,13.7a5.73,5.73,0,0,0-.55,4.48c4.12,11,4.19,11,15.91,12.79l.36,0c9.39,1.32,18.15,3.89,24.87,11.25,4.48,4.91,6.53,10.88,8.38,17ZM342.9,265.1c-.29-4.16-2.25-7-4.81-9.54-6.43-6.41-12.83-12.85-19.27-19.25-5.56-5.52-10.08-5.94-16.44-1.49q-8.78,6.15-17.46,12.42c-4.43,3.21-9,3.59-14,1.36-6.84-3-13.76-5.91-20.76-8.57-5.32-2-8.1-5.75-9-11.26q-1.63-10.58-3.58-21.1c-1.19-6.41-5.07-9.76-11.54-9.84q-14.53-.18-29.06,0c-6.58.07-10.57,3.58-11.73,10.09-1.26,7-2.55,14-3.59,21.1-.85,5.83-3.74,9.65-9.35,11.76-6.44,2.42-12.78,5.13-19,8-5.4,2.51-10.19,2.1-14.94-1.46-5.72-4.28-11.53-8.43-17.4-12.51-5.51-3.83-10.57-3.32-15.34,1.39Q95.7,246.06,85.83,256c-5.43,5.47-5.85,10.22-1.46,16.5Q90.63,281.4,97,290.22c3.13,4.33,3.43,8.81,1.34,13.69-2.85,6.66-5.63,13.36-8.18,20.14A13,13,0,0,1,79.29,333c-7.05,1.13-14.08,2.35-21.11,3.59-6.78,1.2-10.19,5.1-10.25,11.94q-.12,14.16,0,28.33c0,7.05,3.38,10.88,10.44,12.14s14.06,2.48,21.11,3.6c5.5.87,9.23,3.66,11.29,8.95,2.58,6.64,5.31,13.24,8.27,19.71,2.35,5.15,2,9.77-1.36,14.3-4.08,5.56-8.08,11.18-12.08,16.81-4.52,6.37-4.11,11.21,1.42,16.79q9.48,9.53,19,19c5.64,5.61,10.27,6,16.73,1.47,5.74-4,11.49-8.08,17.16-12.22,4.63-3.39,9.34-3.86,14.63-1.45,6,2.75,12.21,5.24,18.43,7.55,5.58,2.08,8.59,5.83,9.43,11.7,1,6.94,2.24,13.85,3.49,20.75s5.12,10.23,12.27,10.27q14,.09,28,0c7.09-.05,11-3.36,12.22-10.35s2.5-13.81,3.52-20.75c.86-5.87,4-9.58,9.5-11.66,6.44-2.42,12.82-5,19.08-7.89,5.29-2.41,10-2,14.64,1.44,5.65,4.17,11.38,8.22,17.13,12.26,6.16,4.32,10.92,3.94,16.19-1.3q9.81-9.72,19.52-19.52c5.32-5.37,5.71-10.29,1.35-16.52q-6.15-8.78-12.42-17.46a12.84,12.84,0,0,1-1.39-13.67q4.47-10.09,8.49-20.4a12.82,12.82,0,0,1,10.71-8.59q10.76-1.71,21.48-3.59c6.74-1.19,10.14-5.13,10.2-12q.12-14.36,0-28.7c-.06-6.75-3.32-10.5-10-11.7-6.9-1.23-13.8-2.53-20.75-3.52-6-.86-9.8-4-11.91-9.7-2.34-6.34-4.88-12.62-7.74-18.74-2.54-5.43-2.06-10.2,1.45-14.94,4.1-5.55,8.13-11.15,12-16.86A56.6,56.6,0,0,0,342.9,265.1Z" transform="translate(-9.63 -159.12)"/><path d="M300.54,420.8a25.67,25.67,0,0,1,6.21,11.07,23.28,23.28,0,0,1-21.52,28.77c-.76,0-1.52,0-2.28,0H124.31c-4.87,0-8.43-2.37-9.18-6.69a11.14,11.14,0,0,1,.81-6.16A16.33,16.33,0,0,1,126.21,439a6,6,0,0,0,4-3.54c1.39-3.1,3-6.06,5.87-8.16a15.88,15.88,0,0,1,8.63-3.19c6.54-.37,9.93-3.29,11.39-10-3.82,0-7.62,0-11.42,0-12.35-.13-21.68-5.54-27-16.68s-3.64-21.79,4.14-31.4c.68-.84.37-1.44.31-2.33a59.08,59.08,0,0,1-.16-11.66c.36-2.82,3-4.08,6.08-4.46v-2.85c0-9.56,0-19.11,0-28.66a2,2,0,0,0-1.49-2.24,7.74,7.74,0,0,1-5.18-7.74c0-2.77,0-5.54,0-8.31a10.55,10.55,0,0,1,3.33-8c5.16-5.12,10.32-10.24,15.38-15.45a4.64,4.64,0,0,0,1.18-2.84,10.49,10.49,0,0,1,4.26-8.38c2.92-2.22,5.85-4.43,8.8-6.6,2.79-2.06,5.83-2.58,9-1s4.94,4.43,4.53,8c-.53,4.51,1.2,7.33,4.67,10.24,26.29,22,52.37,44.16,78.54,66.27A3.51,3.51,0,0,0,253,341c5.87.08,11.75,0,17.85,0V327.89h6.7c0,3.11.19,6.27-.05,9.4s.42,4.7,3.59,6.15c6.77,3.1,10.38,8.86,11,16.37.6,6.95,1.19,13.9,1.8,21.13,3.51,0,6.95,0,10.38,0a16.46,16.46,0,0,1,15.78,12.12,18.45,18.45,0,0,1,.64,4.5c.08,4.36.07,8.72,0,13.08a9.93,9.93,0,0,1-10.11,10.14C307.44,420.84,304.26,420.8,300.54,420.8Zm-139.27-53c0,6.18.33,12.29-.11,18.34-.33,4.53.76,7.53,5.38,8.69a1.79,1.79,0,0,1,1.4,2.17c-.11,1.27,0,2.55,0,3.89a15.72,15.72,0,0,0,1.59,0c7.15-.74,12.6,2,16.15,8.2,2.7,4.71,7,6.94,11.8,8.8,3.27,1.26,6,2.19,9-.63.84-.81,1.51-1.32,1.55-2.57.17-4.91.44-9.82.66-14.72.58-13.2,1.11-26.4,1.79-39.6a5.53,5.53,0,0,0-1.31-4.1q-19.84-25-39.62-50.14c-.39-.5-.85-1-1.56-1.75v55.43C167.91,364.55,166.12,366.76,161.27,367.78ZM314.1,400.87h-2.24c-5.81,0-11.62,0-17.43,0a6.71,6.71,0,0,1-6.93-6.74c-.62-11.18-1.26-22.35-2-33.52-.53-7.85-6.07-12.88-14-12.88q-20.34,0-40.68,0c-7.91,0-13.51,5.35-13.86,13.22q-1.15,25.6-2.22,51.21c0,.66,0,1.31,0,1.91a4.6,4.6,0,0,0,.65.15l74.5,0c6.78,0,13.56,0,20.34,0,2.58,0,3.81-1.25,3.85-3.82C314.12,407.29,314.1,404.25,314.1,400.87Zm-145.39,6.67c-1.31,2-2.34,3.64-3.45,5.23-.79,1.14-1.78,2.15-2.48,3.35a24.89,24.89,0,0,0-1.43,3.44c-2.86,7.17-8.13,10.92-15.87,11.22a9,9,0,0,0-7.9,4.88,30,30,0,0,0-1.41,2.77c-1.5,3.55-4.13,5.59-7.74,7-2.21.84-4.11,2.66-5.88,4.32a3.37,3.37,0,0,0-.76,3.08c.35.72,1.91,1.18,2.94,1.19q37.26.09,74.52,0c.59,0,1.17-.07,2-.11-7.71-9-8.78-18.51-3.32-28.81-2.57-1-5-2.1-7.43-3a15.79,15.79,0,0,1-7.78-5.94,38.42,38.42,0,0,0-4.41-5.75,11.67,11.67,0,0,0-4.85-2.78C171.77,407.17,169.88,407.54,168.71,407.54Zm125.45,42.74a3.55,3.55,0,0,0,.77-.34,10.7,10.7,0,0,0,1.21-1.12c4.69-5.2,6.05-11.17,3.37-17.66s-7.88-10.24-15-10.29c-22.35-.16-44.69-.11-67,0a16.53,16.53,0,0,0-16.32,15.21,16.36,16.36,0,0,0,13.64,17.6c3.52.56,7.17.31,10.76.37,2.88.05,5.76,0,8.63,0V440.74c-1.67,0-3.19.1-4.7,0a3,3,0,0,0-3.39,1.84A9.53,9.53,0,0,1,215.07,447a9.94,9.94,0,0,1,.08-19.17,9.51,9.51,0,0,1,11,4.53,3.06,3.06,0,0,0,3.23,1.77q28.63-.06,57.28,0c4.82,0,7.47,2.62,7.49,7.4C294.17,444.37,294.16,447.25,294.16,450.28ZM167.91,278.46c0,4.67-.09,8.8.06,12.93a6.39,6.39,0,0,0,1.2,3.52Q190.43,322,211.8,349c.41.52.87,1,1.4,1.62,2.23-3.28,4.78-6.12,8.35-7.42a39.25,39.25,0,0,1,9.41-2.05c3.43-.34,6.93-.07,10.95-.07ZM161.27,361V265.07a4.67,4.67,0,0,0,0-1.45c-.25-.72-.51-1.64-1.08-2a2.4,2.4,0,0,0-2,.42c-2.54,1.8-4.94,3.8-7.52,5.53a5.78,5.78,0,0,0-2.7,5.39q.1,39.43,0,78.87v2.62H128.17V361h33.1Zm-20,6.65c-3.78,0-7.37,0-11,0a2.93,2.93,0,0,0-1.74.85,22.37,22.37,0,0,0-1.62,31.2,21.5,21.5,0,0,0,14.31,7.53Zm20,39.83a10.51,10.51,0,0,1,0-1.79c.86-4.48-.57-7.55-5.24-8.71-1.21-.3-1.45-1.16-1.44-2.35.05-8.22,0-16.44,0-24.67v-2.15h-6.48v39.67Zm-20-101.61c-2,2-3.7,3.64-5.2,5.42a5.21,5.21,0,0,0-1.28,3c-.1,10.44-.06,20.89-.06,31.33,0,.67.06,1.33.09,2h6.45Zm.1-22.59-.54-.4c-2.13,2.23-4.22,4.51-6.39,6.69-6.61,6.65-6.64,6.64-6.32,16a2.84,2.84,0,0,0,1,2c.32.22,1.4-.28,1.87-.74q4.84-4.69,9.54-9.54a3.2,3.2,0,0,0,.82-2C141.37,291.31,141.33,287.3,141.33,283.28ZM247.5,453.93v-13h-6.39v13Zm6.88,0h6.43v-13h-6.43Zm19.7,0v-13h-6.39v13Zm6.87.18,6.44-.32V440.88H281Zm13.32-66.44v6.43h6.39v-6.43Zm-73.22,49.78a3.31,3.31,0,1,0-3.34,3.27A3.34,3.34,0,0,0,221.05,437.45Zm92.4-43.28a10,10,0,0,0-5.85-5.88v5.88Z" transform="translate(-9.63 -159.12)"/><path d="M250.93,407.51h-22.2c-5.24,0-8-2.92-7.58-8.06q1.44-18.93,2.9-37.84c.39-4.92,2.89-7.25,7.76-7.25h38.38c4.76,0,7.3,2.32,7.68,7.1q1.51,19.11,2.94,38.25c.35,4.77-2.51,7.79-7.27,7.8C266,407.53,258.47,407.51,250.93,407.51ZM247.5,401V361.16H230.78c-1,13.36-2,26.57-3.06,39.81Zm6.92-39.89v39.68h19.81c-1-13.33-2.05-26.48-3.08-39.68Z" transform="translate(-9.63 -159.12)"/><path d="M181.06,427.35h-6.39V421h6.39Z" transform="translate(-9.63 -159.12)"/><path d="M167.82,434.24v6.38h-6.38v-6.38Z" transform="translate(-9.63 -159.12)"/><path d="M154.52,447.3h-6.4v-6.44h6.4Z" transform="translate(-9.63 -159.12)"/><path d="M187.74,447.29h-6.39v-6.42h6.39Z" transform="translate(-9.63 -159.12)"/><path class="cls-2" d="M598.64,252.33l-54.91,95.1H489.58v-95.1H453V477.64h36.58V384h55l54.06,93.64H728.72l65-112.66-65-112.65ZM711.49,446.91h-94.3L570,365.25l47.15-81.67h94.3l47.15,81.67Z" transform="translate(-9.63 -159.12)"/><polygon class="cls-2" points="855.06 190.64 826.28 190.64 826.28 121.57 800.96 121.57 800.96 282.72 826.28 282.72 826.28 213.66 855.06 213.66 855.06 282.72 880.84 282.72 880.84 121.57 855.06 121.57 855.06 190.64"/><polygon class="cls-2" points="931.02 188.1 921.82 223.56 921.82 121.57 899.25 121.57 899.25 282.72 925.27 282.72 946.45 208.82 956.81 169.23 956.81 282.72 979.6 282.72 979.6 121.57 951.74 121.57 931.02 188.1"/><polygon class="cls-2" points="1083.8 281.84 1152.86 281.84 1152.86 258.82 1109.12 258.82 1109.12 211.63 1143.88 211.63 1143.88 188.61 1109.12 188.61 1109.12 143.72 1152.86 143.72 1152.86 120.69 1083.8 120.69 1083.8 281.84"/><polygon class="cls-2" points="1226.53 198.97 1253 120.69 1229.52 120.69 1209.95 180.09 1190.84 120.69 1164.6 120.69 1191.07 198.97 1162.76 281.84 1186.47 281.84 1207.42 218.07 1228.14 281.84 1254.84 281.84 1226.53 198.97"/><path class="cls-2" d="M1255.23,226a6.73,6.73,0,0,0-4.66-1.93c-10.37,1.14-19.69-2.3-29.17-5.75q-80.16-29.19-160.42-58.1c-.87-.31-1.69-.75-2.54-1.13H1056q-40.87,21.67-81.76,43.29a14.29,14.29,0,0,1-5.84,1.55c-6.7.3-10.58,4.06-10.61,10.77q0,13.86,0,27.72c0,7,3.77,10.81,10.73,10.83q22.68,0,45.37,0h3.64V257q0,14.94,0,29.89c0,3.69.92,6.88,3.89,9.42.8.69,1.06,2.35,1.06,3.57q.09,33.78.05,67.57v81.25c-1.6,0-2.91,0-4.22,0-4,.09-5.66,1.74-5.72,5.73-.08,4.64,0,9.28,0,14-3.56.82-7.93-1.17-9.6,3.61-1,2.82.9,4.4,2.69,6h72.72c2.16-1.34,3.35-2.49,3.06-5.8-.47-5.24-6.12-3-9.74-3.82,0-4.82.07-9.57,0-14.32-.07-3.65-1.74-5.23-5.38-5.34-1.42-.05-2.83,0-4.56,0V387.39q0-43.42.06-86.85a5.06,5.06,0,0,1,1.38-3.65,11.84,11.84,0,0,0,4.64-7.44q1.86-8.65,3.8-17.3c1.4-6.25,2.82-12.5,4.26-18.86h107.75a27.1,27.1,0,0,0,3.72-.13,4.2,4.2,0,0,0,3.86-4.2,4.11,4.11,0,0,0-3.3-4.62,19.28,19.28,0,0,0-4.3-.38q-62.91,0-125.83,0h-3.48c2.38-3.32,5.07-5.75,7.53-8.4a6.65,6.65,0,0,1,5.41-2.28q70.53.1,141.06.06h3.43v10.46a56.34,56.34,0,0,0-5.77.39c-2.59.45-4.07,2.11-3.87,4.8s1.85,4.09,4.48,4.25c1.71.1,3.43,0,5.38,0h.32a4.08,4.08,0,0,1,.71.06h28.22c9.77,0,19.08-.07,28.38,0,2.85,0,5.08-.66,6.47-3.28v-3.11C1269.1,240,1262.26,232.89,1255.23,226ZM1002.4,243.77H967.23V233.33H978c1.24,0,2.48,0,3.72,0,3.15-.12,5.18-1.9,5.22-4.55s-1.92-4.61-5.09-4.73c-3.72-.14-7.45,0-11.17-.05h-3.46V213.6h35.13v10.12c-2.42.85-5,2.06-4.64,5.38.25,2.59,2,4,4.69,4.3Zm19.87,0h-10.39V235c0-7,0-13.9,0-20.86-.06-6-3.94-9.91-9.89-10.11a62.24,62.24,0,0,1-9.56-.64l29.86-15.87Zm29.86-72.06v22.59L1040,178.14Zm-20.07,11.38,15.53,20.74h-15.53ZM1052,213.48v19l-.9.38-14.5-19.36ZM1032.05,223l12.32,16.48c-4,4.88-4.45,5-12.32,4.22ZM1027,253.54h10.42v17.38c0,6,1.26,7.31,7.23,7.32h16c-.78,3.52-1.37,6.44-2.12,9.32a2,2,0,0,1-1.39,1.24c-10,.07-20,.05-30.16.05Zm25.14,65.6c-5.37-7.19-10.27-13.73-15.49-20.71h15.49Zm0,19.3v20.68l-15.47-20.68Zm-4.52-9.73H1032V307.8ZM1032,347.8l15.66,20.92H1032Zm0,40,15.65,20.89H1032Zm0,39.95,15.58,20.83h-15.58Zm4.61-9.42h15.52V439Zm.07-39.85h15.45v20.63C1046.82,391.91,1041.93,385.37,1036.73,378.44Zm25.45,79.79v10.22h-40.13V458.23Zm4-204.71c-1.06,4.82-2.05,9.45-3.16,14a2,2,0,0,1-1.39,1.25c-4.84.1-9.67.06-14.68.06V253.52Zm141.75-29.74h-146V170.5L1208,223.36C1207.94,223.5,1207.92,223.64,1207.89,223.78Zm23.8,19.95h-10.28V233.49h10.28Zm27.44.09h-17.78V233.48c4.55-.33,8.81-.88,12,3.6,1.63,2.3,4.13,4,6.24,6Z" transform="translate(-9.63 -159.12)"/><path class="cls-2" d="M1274,441V279h25.46v69.43h28.93V279h25.92V441h-25.92V371.57h-28.93V441Z" transform="translate(-9.63 -159.12)"/><path class="cls-2" d="M1372.82,441V279h22.68V381.52l9.25-35.64L1425.58,279h28V441h-22.92V326.91l-10.41,39.8L1399,441Z" transform="translate(-9.63 -159.12)"/><path class="cls-2" d="M1497.09,391.24V441h-25.46V279h25.46v70.59L1530.42,279h25.45l-35.4,72.21,35.4,89.79h-26.15L1505,376.43Z" transform="translate(-9.63 -159.12)"/></svg>